<svg width="40" height="40" viewBox="0 0 40 40" fill="none" xmlns="http://www.w3.org/2000/svg">
<path d="M19.999 0C8.9525 0 0 8.9545 0 19.999C0 28.471 5.27101 35.7139 12.7121 38.6287C12.5359 37.0472 12.3798 34.6129 12.7801 32.8872C13.1445 31.3258 15.1264 22.9458 15.1264 22.9458C15.1264 22.9458 14.5278 21.7467 14.5278 19.975C14.5278 17.1963 16.1393 15.1204 18.1472 15.1204C19.8549 15.1204 20.6776 16.4016 20.6776 17.937C20.6776 19.6547 19.5846 22.2191 19.0221 24.5974C18.5516 26.5873 20.021 28.2108 21.9829 28.2108C25.5363 28.2108 28.2709 24.4632 28.2709 19.0521C28.2709 14.2635 24.8296 10.9164 19.9169 10.9164C14.2255 10.9164 10.8843 15.1844 10.8843 19.5946C10.8843 21.3122 11.547 23.156 12.3738 24.1589C12.444 24.2345 12.4936 24.3268 12.5178 24.4271C12.542 24.5274 12.54 24.6322 12.5119 24.7315C12.3597 25.3621 12.0214 26.7214 11.9574 26.9996C11.8693 27.366 11.6671 27.4441 11.2867 27.2679C8.79035 26.1048 7.22887 22.4533 7.22887 19.5185C7.22887 13.2105 11.8112 7.41704 20.4434 7.41704C27.382 7.41704 32.7731 12.3597 32.7731 18.968C32.7731 25.8626 28.427 31.4058 22.3953 31.4058C20.3673 31.4058 18.4635 30.3548 17.8109 29.1117L16.5637 33.8642C16.1133 35.6018 14.8941 37.7799 14.0794 39.1091C15.9974 39.7013 17.9936 40.0016 20.001 40C31.0455 40 40 31.0455 40 20.001C40 8.95651 31.0435 0 19.999 0Z" fill="black"/>
</svg>
