<svg width="40" height="26" viewBox="0 0 40 26" fill="none" xmlns="http://www.w3.org/2000/svg">
<path d="M39.1863 4.08779C38.9586 3.30364 38.5138 2.58851 37.8959 2.0136C37.2781 1.43868 36.5089 1.02402 35.6648 0.810889C32.535 0.0130026 20.0138 1.40957e-05 20.0138 1.40957e-05C20.0138 1.40957e-05 7.4947 -0.0129751 4.36292 0.749656C3.51936 0.972594 2.7517 1.39312 2.13363 1.97086C1.51555 2.5486 1.06782 3.26415 0.833414 4.04883C0.00799764 6.95462 2.92822e-06 12.9814 2.92822e-06 12.9814C2.92822e-06 12.9814 -0.00799138 19.038 0.811429 21.9141C1.2711 23.5043 2.62015 24.7605 4.33494 25.1891C7.4967 25.987 19.9839 26 19.9839 26C19.9839 26 32.505 26.013 35.6348 25.2522C36.4792 25.0394 37.2491 24.6257 37.8685 24.052C38.4879 23.4783 38.9352 22.7643 39.1663 21.9809C39.9937 19.0769 39.9997 13.052 39.9997 13.052C39.9997 13.052 40.0397 6.99358 39.1863 4.08779ZM16.0087 18.5648L16.0187 7.43149L26.4253 13.0074L16.0087 18.5648Z" fill="black"/>
</svg>
